<?xml version="1.0" ?><!DOCTYPE svg  PUBLIC '-//W3C//DTD SVG 1.1//EN'  'http://www.w3.org/Graphics/SVG/1.1/DTD/svg11.dtd'><svg enable-background="new 0 0 30 30" height="30px" id="Capa_1" version="1.1" viewBox="0 0 30 30" width="30px" xml:space="preserve" xmlns="http://www.w3.org/2000/svg" xmlns:xlink="http://www.w3.org/1999/xlink"><path d="M12.3,15.3c0.3-0.2,0.4-0.7,0.2-1c-0.9-1.3-1.3-2.8-1.3-4.3c0-4.3,3.5-7.7,7.7-7.7s7.7,3.5,7.7,7.7  c0,1.5-0.5,3-1.3,4.3c-0.2,0.3-0.1,0.8,0.2,1c0.1,0.1,0.3,0.1,0.4,0.1c0.2,0,0.5-0.1,0.6-0.3c1-1.5,1.6-3.3,1.6-5.2  c0-5.1-4.1-9.2-9.2-9.2S9.7,4.9,9.7,9.9c0,1.8,0.5,3.6,1.6,5.2C11.5,15.4,11.9,15.5,12.3,15.3z M29.7,28L19.5,10.4  c-0.3-0.5-1-0.5-1.3,0L8,28.2c-0.1,0.2-0.1,0.5,0,0.8s0.4,0.4,0.6,0.4h20.5c0,0,0,0,0,0c0.4,0,0.8-0.3,0.8-0.8  C29.9,28.3,29.9,28.2,29.7,28z M9.9,27.8l9-15.5l9,15.5H9.9z M7.1,21.9H1.6V9.2h5.3c0.4,0,0.8-0.3,0.8-0.8S7.3,7.7,6.9,7.7h-6  c-0.4,0-0.8,0.3-0.8,0.8v14.1c0,0.4,0.3,0.8,0.8,0.8h6.3c0.4,0,0.8-0.3,0.8-0.8S7.5,21.9,7.1,21.9z" fill="#262324"/></svg>